<svg version="1.2" xmlns="http://www.w3.org/2000/svg" viewBox="0 0 895 512" width="895" height="512">
	<style>
		.s0 { fill: #ffffff } 
	</style>
	<path fill-rule="evenodd" class="s0" d="m515.6 217.5c0.01 4.25 0.03 8.25 0 12.24-0.02 3.65-1.32 4.93-5 4.93q-61.6 0.01-123.2 0.01c-4.25 0-5.42-1.19-5.42-5.56-0.02-9.24-0.11-18.49 0.04-27.73 0.05-2.93-0.86-4.35-3.69-5.5-15.51-6.32-25.02-17.87-27.35-34.43-3.26-23.13 12.36-43.7 34.57-47.73 5.92-1.07 11.74-1.03 17.48 0.78 2.2 0.69 3.68 0.03 4.89-1.79 7.92-11.92 19.2-18.7 33.09-21.18 17.87-3.19 37.92 3.8 49.07 19.96 2.55 3.68 2.49 3.58 6.9 2.53 11.4-2.71 21.86-0.06 31.32 6.35 10.84 7.36 17.32 17.82 18.7 30.82 1.65 15.5-3.84 28.42-16.07 38.29-3.86 3.11-8.18 5.43-12.88 7-1.79 0.6-2.48 1.67-2.47 3.52 0.06 5.74 0.02 11.49 0.02 17.49zm-27.5-85.26c-2.23 0.33-3.41-0.8-4.07-2.79-0.53-1.58-1.07-3.17-1.79-4.66-10.11-20.84-37.28-27.05-55.48-12.7-5.36 4.23-9.29 9.49-11.6 15.94-1.72 4.77-4.24 5.65-8.62 3.1q-0.54-0.32-1.05-0.69c-4.64-3.36-9.97-4.33-15.44-3.65-17.8 2.21-29.04 18.17-25.36 35.68 2.45 11.68 13.61 21.47 25.49 22.38 3.51 0.26 5.46 2.28 5.47 5.82 0.03 8.75 0.01 17.5 0.02 26.25 0 3.74 0.19 3.93 3.98 3.93q49.12 0 98.24 0c3.88 0 4.08-0.22 4.08-4.1q-0.01-12.63 0.01-25.25c0.02-4.48 1.87-6.42 6.26-6.68 0.42-0.03 0.84-0.02 1.25-0.09 20.97-3.64 31.19-27.78 19.23-45.26-7.54-11.02-24.52-17.73-37.48-8.34-0.8 0.59-1.72 1.02-3.14 1.11zm8.47 114.89c1.52-1.6 3.24-2.26 5.24-2.41 4.17-0.32 8.33-0.3 12.48 0.13 2.93 0.3 5.4 2.71 5.82 5.69q0.38 2.6 0.39 5.22 0.02 25.63 0 51.25 0 0.37 0 0.75c-0.06 8.73-2.26 10.94-10.88 10.95q-3.62 0.02-7.25-0.02c-4.51-0.06-7.47-2.97-7.52-7.55-0.06-6 0-12-0.03-17.99-0.01-3.33-0.66-4.01-3.92-4.01q-42.12-0.01-84.24 0c-3.34 0-3.97 0.64-3.98 3.92-0.02 6 0.02 12-0.01 18-0.03 4.77-2.85 7.59-7.62 7.64-3.58 0.03-7.16 0.05-10.74-0.02-4.02-0.07-6.79-2.65-6.98-6.65-0.64-13.58-0.21-27.16-0.28-40.74q-0.06-9.86 0.3-19.72c0.15-4.15 2.47-6.39 6.55-6.78 4.07-0.39 8.15-0.49 12.22-0.01 4.13 0.49 6.5 3.15 6.54 7.4 0.05 5.83 0 11.66 0.02 17.5 0.01 3.23 0.97 3.89 4.24 3.97 10.99 0.28 21.98-0.26 32.97 0.04 7.91 0.21 15.83-0.11 23.74-0.13 9.16-0.02 18.31 0.1 27.47 0 3.31-0.04 3.71-0.65 3.72-3.91q0.04-8.5 0-17c-0.02-1.99 0.4-3.79 1.75-5.52zm-196.36 123.7c1.77 3.01 3.07 6.08 5.05 8.72 1.12-0.3 1.25-1.23 1.62-1.93 4.38-8.14 8.78-16.27 13.07-24.45 0.88-1.68 1.91-2.52 3.88-2.4 2.49 0.16 4.99 0.11 7.49 0.03 1.67-0.06 2.37 0.48 2.38 2.27q0.15 24.98 0.46 49.97c0.02 2.12-0.79 2.81-2.8 2.69q-2.99-0.17-5.99 0c-1.97 0.12-2.59-0.64-2.58-2.59 0.08-8.67 0.04-17.33-0.01-26-0.01-1.79-0.26-3.58-0.42-5.61-1.39 0.95-1.75 2.18-2.32 3.24-3.16 5.86-6.32 11.72-9.37 17.64-0.82 1.59-1.83 2.14-3.64 2.37-4.41 0.54-6.93-0.98-8.8-5.16-2.81-6.28-6.37-12.22-9.61-18.31q-0.32 0.05-0.64 0.09-0.01 1.53 0 3.06c0.05 9.33 0.04 18.66 0.22 27.99 0.05 2.55-0.78 3.47-3.29 3.24-1.81-0.17-3.66-0.07-5.49-0.03-1.47 0.03-2.14-0.59-2.1-2.09 0.05-1.58 0.01-3.16 0.01-4.74 0-15 0.05-29.99-0.06-44.99-0.01-2.44 0.75-3.27 3.13-3.06 2.07 0.17 4.17 0.16 6.24 0 1.97-0.15 3.03 0.67 3.92 2.34 3.12 5.89 6.37 11.7 9.65 17.71zm184.62 20.17c0-7.66 0.06-15.07-0.04-22.48-0.02-2.03 0.59-2.91 2.69-2.73 1.57 0.13 3.17 0.12 4.74 0 2.19-0.16 3.87 0.15 3.46 3.63 4.64-4.61 9.88-5.35 15.39-4.34 4.55 0.83 8.37 3.2 11.24 6.9 5.84 7.52 5.58 20.6-0.51 27.68-6.73 7.84-15 8.77-25.66 2.88q0 7.98 0 15.93c0 3.05-0.12 3.16-3.29 3.18-1.58 0.01-3.18-0.11-4.75 0.04-2.46 0.23-3.36-0.63-3.32-3.21 0.13-9.08 0.05-18.15 0.05-27.48zm29.36-11.34c-2.32-4.16-5.64-5.67-10.95-4.99-3.26 0.42-5.93 3.12-6.93 7.03-0.71 2.78-0.85 5.55-0.11 8.38 1.02 3.91 3.9 6.51 7.69 6.74 5.44 0.32 8.76-1.46 10.33-5.58 1.43-3.72 1.48-7.47-0.03-11.58zm95.66 23.79c-8.82 4.85-17.28 4.56-25.11-1.55-5.47-4.27-7.09-10.42-6.9-17.14 0.27-9.45 6.31-17.45 15.39-19.42 14.85-3.22 25.64 6.99 24.49 21.87-0.15 1.92-1.46 1.75-2.68 1.75q-10.11 0.01-20.22-0.01-2.5 0-4.97 0c-0.55 3.96 2.43 7.81 6.37 8.38 3.8 0.54 7.22-0.29 9.69-3.31 1.53-1.89 3.25-2.12 5.3-1.49 1.88 0.57 3.95 0.53 5.79 1.67-1.15 4.04-3.65 6.91-7.15 9.25zm-7.68-21.64q1.25-0.01 2.5-0.02c1.31-0.03 1.73-0.75 1.55-1.98-0.67-4.33-4.66-7.2-9.35-6.7-4.13 0.44-6.95 4.02-6.59 8.43 0.21 0.07 0.44 0.22 0.67 0.22 3.58 0.03 7.16 0.04 11.22 0.05zm-249.39 23.6c-9.5-3.9-13.91-11.68-12.93-22.54 0.82-9 7.54-16.45 16.87-17.85 11.84-1.78 21.16 4.7 22.92 16.44 1.32 8.85 1.3 7.48-6.86 7.39-6.32-0.06-12.65-0.04-18.97-0.13-0.73-0.01-1.51-0.18-2.15 0.37-0.68 6.1 6.43 10.58 13.52 7.34 1.28-0.59 2.5-1.41 3.3-2.61 1.05-1.56 2.49-1.91 4.13-1.41 2.12 0.64 4.45 0.53 6.64 1.9-2.47 6.52-7.18 10.26-13.75 11.83-4.23 1.01-8.42 0.66-12.72-0.73zm11.4-23.6c1.38-0.12 2.81 0.29 4.14-0.31-0.01-4.54-3.08-8.1-7.16-8.38-5.05-0.35-8.51 2.29-9.33 6.97-0.27 1.51 0.5 1.72 1.65 1.72 3.41-0.01 6.81 0 10.7 0zm20.66 9.76c1.92-5.9 7.09-9.64 13.29-9.74q4.87-0.09 9.75 0c1.97 0.05 2.76-0.52 2.17-2.65-0.91-3.38-2.44-5.06-5.35-5.46-3.98-0.54-7.06 0.72-8.46 3.75-0.77 1.68-1.82 1.96-3.38 1.51q-1.56-0.44-3.13-0.82c-3.75-0.93-3.95-1.31-2.53-4.89 1.28-3.21 3.75-5.26 6.78-6.65 4.55-2.08 9.41-2.38 14.19-1.52 8.13 1.48 12.13 6.44 12.42 15.35 0.25 7.66 0.04 15.32 0.09 22.99 0.01 1.57-0.56 2.3-2.18 2.23q-2.5-0.11-5 0.01c-2.07 0.11-3.57-0.32-3.07-3.34-2.95 2.06-5.62 3.54-8.81 4.03-3.13 0.48-6.14 0.29-9.11-0.69-6.33-2.07-9.26-7.41-7.67-14.11zm22.71 3.73c1.46-1.65 2.53-3.46 2.49-6.05-3.97-0.12-7.84-0.59-11.64 0.63-1.9 0.62-3.32 1.95-3.09 4.03 0.23 2.03 1.57 3.5 3.7 3.89 3.09 0.56 5.98 0.18 8.54-2.5zm48.66-18.8c0.32 2.36 1.99 3.18 3.79 3.65 2.57 0.67 5.2 1.09 7.79 1.69 2.87 0.67 5.56 1.81 7.72 3.86 5.24 4.96 4.1 14.22-2.48 18-7.14 4.11-14.62 4.06-21.95 0.35-3-1.51-4.9-4.16-5.95-7.4-0.37-1.15-0.06-1.75 1.05-2.03q3.38-0.85 6.77-1.68c1.05-0.26 1.71 0.22 2.24 1.12 2.14 3.65 5.6 4.14 9.34 3.69 1.88-0.22 3.42-1.28 3.65-3.23 0.21-1.83-1.28-2.72-2.8-3.39-2.62-1.15-5.46-1.39-8.22-1.98-5.06-1.09-9.37-3.22-10.8-8.72-1.81-6.98 2.01-12.96 9.61-14.92 4.58-1.19 9.22-1.17 13.74 0.49 3.67 1.34 5.99 4.04 7.52 7.55 0.67 1.56 0.24 2.36-1.41 2.62-1.07 0.18-2.15 0.33-3.18 0.64-2.13 0.64-3.71 0.52-5.37-1.49-2.96-3.59-9.54-2.82-11.06 1.18zm-84.57-105.5c0 8.82 0.01 17.39-0.01 25.96-0.01 5.32-2.45 7.72-7.8 7.73-1.08 0-2.16 0.03-3.24-0.02-3.33-0.14-5.76-2.33-6.3-5.63-0.44-2.64-0.24-5.31-0.25-7.97q-0.06-12.1-0.01-24.21c0.01-3.05 0.18-6.27 3.54-7.59 3.82-1.51 7.81-1.78 11.47 0.59 1.87 1.21 2.53 3.23 2.59 5.4 0.05 1.83 0.01 3.66 0.01 5.74zm154.27-6.73c1.33-4.66 2.97-5.91 7.51-5.93 1.17 0 2.34-0.06 3.5 0.03 3.7 0.3 6.04 2.55 6.26 6.17 0.67 10.99 0.28 21.98 0.18 32.96-0.04 4.76-2.89 7.14-7.74 7.19q-1.25 0.01-2.5 0c-4.77-0.02-7.21-2.39-7.23-7.22-0.04-10.99-0.01-21.98 0.02-33.2zm-98.08 85.79c-0.21-2.03 0.48-2.85 2.37-2.76 2.24 0.11 4.5 0.05 6.74 0.01 1.36-0.02 1.85 0.45 1.86 1.91 0.08 17.64 0.24 35.29 0.36 52.93 0.03 3.52 0 3.52-3.59 3.53-7.73 0.03-7.73 0.03-7.73-7.68-0.01-15.9-0.01-31.8-0.01-47.94zm123 31.44c0-4.58 0.06-8.91-0.02-13.23-0.04-1.83 0.61-2.59 2.45-2.47 1.66 0.1 3.34 0.13 4.99-0.02 2.19-0.19 3.1 0.67 2.9 2.84-0.03 0.37 0.12 0.77 0.23 1.46 1.07-0.91 1.9-1.68 2.78-2.38 1.59-1.25 3.4-2.07 5.35-2.59 5.37-1.44 6.66-0.48 6.66 4.93 0 1.81 0 3.62 0 5.34-1.34 0.57-2.43 0.27-3.48 0.26-7.28-0.02-10.89 3.44-10.99 10.8q-0.13 8.11 0.08 16.23c0.06 2.27-0.65 3.04-2.97 3.03-7.98-0.01-7.97 0.07-7.97-7.97 0-5.33-0.01-10.65-0.01-16.23zm-7.61 8.32c0.12 4.56 0.2 8.89 0.35 13.21 0.06 1.9-0.71 2.75-2.66 2.65q-3-0.16-6 0c-1.94 0.11-2.64-0.64-2.61-2.6 0.08-6.83 0.03-13.65 0.02-20.48 0-4.83 0.06-9.66-0.02-14.48-0.03-1.74 0.6-2.4 2.32-2.32q3 0.15 6-0.01c1.93-0.11 2.61 0.58 2.59 2.57-0.08 7.07-0.01 14.15 0.01 21.46zm-6.87-42.57c2.96-0.28 5.6-0.01 7.29 2.53 1.46 2.18 1.45 4.55 0.17 6.85-1.51 2.72-4.76 3.86-8.3 2.96-2.69-0.68-4.74-3.48-4.66-6.36 0.08-3.21 1.73-5.06 5.5-5.98z"/>
</svg>