<svg version="1.1" id="Layer_1" xmlns="http://www.w3.org/2000/svg" xmlns:xlink="http://www.w3.org/1999/xlink" x="0px" y="0px" width="100%" viewBox="0 0 1024 1024" enable-background="new 0 0 1024 1024" xml:space="preserve">
<path fill="#000000" opacity="1.000000" stroke="none" d="
M646.204651,435.000000 
	C646.211792,443.496674 646.263672,451.493652 646.208313,459.489899 
	C646.157898,466.782196 643.559875,469.343018 636.196655,469.344513 
	C554.064026,469.361298 471.931335,469.364502 389.798676,469.355255 
	C381.295990,469.354309 378.967712,466.970673 378.951355,458.248322 
	C378.916718,439.756104 378.738586,421.260529 379.048615,402.773468 
	C379.146759,396.920135 377.324066,394.079803 371.653351,391.770508 
	C340.640167,379.141113 321.623779,356.049591 316.958130,322.919098 
	C310.444794,276.667938 341.670959,235.522491 386.098053,227.462036 
	C397.947174,225.312241 409.574066,225.403793 421.054047,229.010376 
	C425.468872,230.397369 428.424927,229.074036 430.842346,225.434113 
	C446.674683,201.595276 469.231781,188.047241 497.026306,183.084702 
	C532.762085,176.704254 572.851624,190.686172 595.168762,223.007034 
	C600.252747,230.369858 600.143677,230.167999 608.966858,228.064224 
	C631.753845,222.630905 652.673523,227.937576 671.593384,240.765610 
	C693.289856,255.476166 706.243225,276.405548 709.007507,302.390839 
	C712.305969,333.397949 701.319519,359.234467 676.861877,378.973358 
	C669.146484,385.200134 660.498352,389.844879 651.104858,392.985413 
	C647.524597,394.182404 646.133484,396.320374 646.169495,400.014862 
	C646.281372,411.508942 646.205688,423.004822 646.204651,435.000000 
M591.196594,264.474030 
	C586.749023,265.143219 584.387390,262.870636 583.051575,258.897278 
	C581.992676,255.747269 580.929565,252.565109 579.483459,249.583939 
	C559.263855,207.899734 504.924164,195.489853 468.522095,224.183701 
	C457.794098,232.640030 449.946350,243.156586 445.312317,256.062286 
	C441.885376,265.606201 436.846558,267.366852 428.078247,262.252991 
	C427.359741,261.833923 426.658783,261.377686 425.985260,260.889648 
	C416.706146,254.165680 406.048431,252.224121 395.104553,253.583817 
	C359.494202,258.008148 337.017975,289.916779 344.376495,324.941986 
	C349.285339,348.307251 371.591095,367.886169 395.360107,369.692993 
	C402.387634,370.227203 406.281952,374.266113 406.306274,381.344330 
	C406.366425,398.841461 406.327911,416.338867 406.339233,433.836182 
	C406.344055,441.318512 406.717651,441.705841 414.308746,441.706146 
	C479.798645,441.708984 545.288513,441.702850 610.778442,441.691559 
	C618.538574,441.690247 618.944214,441.259827 618.945068,433.493134 
	C618.946899,416.662506 618.913452,399.831757 618.967407,383.001312 
	C618.996155,374.035309 622.692749,370.167114 631.489807,369.632019 
	C632.320496,369.581512 633.164368,369.603668 633.979614,369.462311 
	C675.918213,362.189728 696.351501,313.896912 672.443726,278.935425 
	C657.369080,256.891113 623.405457,243.470078 597.487671,262.265778 
	C595.881775,263.430359 594.038025,264.303833 591.196594,264.474030 
z" data-index="0" style="opacity: 1;"></path>
<path fill="#000000" opacity="1.000000" stroke="none" d="
M608.147644,494.256134 
	C611.186157,491.058746 614.611938,489.732391 618.623535,489.431091 
	C626.955383,488.805389 635.272888,488.844727 643.572510,489.701111 
	C649.448608,490.307465 654.373413,495.110718 655.228210,501.086151 
	C655.721497,504.534882 656.003418,508.044830 656.007874,511.527679 
	C656.051392,545.690857 656.016541,579.854126 656.003845,614.017334 
	C656.003662,614.517273 656.004333,615.017273 656.000854,615.517212 
	C655.877991,632.973694 651.484680,637.399597 634.240173,637.420654 
	C629.407349,637.426514 624.573853,637.451721 619.741760,637.386658 
	C610.716492,637.265137 604.805664,631.439575 604.705322,622.287170 
	C604.573792,610.289734 604.694153,598.289734 604.646973,586.291077 
	C604.620789,579.634949 603.318542,578.280945 596.798523,578.278870 
	C540.637268,578.260620 484.476013,578.265930 428.314758,578.287354 
	C421.637238,578.289917 420.375244,579.560303 420.359070,586.115723 
	C420.329437,598.114502 420.391632,610.113708 420.332397,622.112244 
	C420.285309,631.653564 414.646942,637.304993 405.103424,637.398315 
	C397.941071,637.468323 390.775360,637.501648 383.614716,637.364746 
	C375.575897,637.211121 370.047424,632.055542 369.666229,624.052124 
	C368.373291,596.908142 369.249756,569.742126 369.099640,542.586243 
	C369.026947,529.437256 369.205292,516.277466 369.694977,503.138397 
	C370.004578,494.831512 374.630890,490.362000 382.795135,489.580902 
	C390.932434,488.802399 399.092987,488.608276 407.230530,489.568634 
	C415.493835,490.543793 420.244110,495.860657 420.317902,504.354950 
	C420.419250,516.019592 420.325439,527.685913 420.360199,539.351379 
	C420.379517,545.829102 422.300629,547.130981 428.837860,547.298523 
	C450.822144,547.861938 472.798279,546.776917 494.787933,547.375061 
	C510.598999,547.805176 526.437195,547.161926 542.263611,547.122681 
	C560.573975,547.077271 578.886292,547.320007 597.194336,547.121338 
	C603.825134,547.049377 604.625488,545.823547 604.646423,539.298462 
	C604.682678,527.966248 604.716736,516.633606 604.636292,505.301941 
	C604.608093,501.327637 605.449341,497.719788 608.147644,494.256134 
z" data-index="1" style="opacity: 1;"></path>

<path fill="#000000" opacity="1.000000" stroke="none" d="
M584.660400,781.999878 
	C584.659912,766.678894 584.772888,751.856567 584.585449,737.037903 
	C584.534058,732.972717 585.764648,731.223877 589.960999,731.573730 
	C593.103271,731.835693 596.298096,731.811035 599.445557,731.583069 
	C603.810669,731.266968 607.185730,731.876465 606.360840,738.836609 
	C615.641968,729.623840 626.126709,728.149353 637.130554,730.158936 
	C646.241760,731.822876 653.883423,736.560242 659.626953,743.959839 
	C671.304932,759.004822 670.782959,785.154175 658.607239,799.326172 
	C645.145752,814.995056 628.592957,816.864380 607.281738,805.076050 
	C607.281738,815.723572 607.291138,826.333252 607.278137,836.942932 
	C607.270630,843.040833 607.030396,843.265137 600.696167,843.308289 
	C597.532288,843.329834 594.345032,843.075562 591.209412,843.375244 
	C586.283020,843.846069 584.474731,842.120850 584.552612,836.953064 
	C584.826172,818.805603 584.659851,800.651489 584.660400,781.999878 
M643.379028,759.313721 
	C638.741699,750.995544 632.107849,747.974304 621.480347,749.340515 
	C614.955750,750.179321 609.618408,755.587341 607.627319,763.393372 
	C606.207703,768.959351 605.925598,774.493958 607.400940,780.152039 
	C609.440063,787.972717 615.204712,793.186951 622.785217,793.636719 
	C633.662170,794.282043 640.294922,790.726990 643.449280,782.471375 
	C646.292419,775.030212 646.393005,767.540161 643.379028,759.313721 
z" data-index="3" style="visibility: hidden; opacity: 1;"></path>

<path fill="#000000" opacity="1.000000" stroke="none" d="
M320.552368,810.811401 
	C301.563202,803.015259 292.735168,787.454956 294.706726,765.735168 
	C296.339508,747.747620 309.778748,732.837891 328.434753,730.032776 
	C352.120056,726.471497 370.760345,739.440002 374.270416,762.916931 
	C376.916321,780.613953 376.877045,777.874939 360.558899,777.708374 
	C347.912720,777.579285 335.262756,777.620667 322.616028,777.442688 
	C321.162109,777.422180 319.598938,777.088074 318.319305,778.171631 
	C316.965363,790.383179 331.174438,799.335571 345.351776,792.853882 
	C347.919861,791.679688 350.351501,790.038574 351.960419,787.645142 
	C354.062805,784.517700 356.937531,783.819580 360.228058,784.818665 
	C364.456055,786.102295 369.126678,785.884888 373.499084,788.626221 
	C368.552063,801.661194 359.133423,809.139160 345.998260,812.281677 
	C337.543793,814.304443 329.162506,813.596008 320.552368,810.811401 
M343.364960,763.623230 
	C346.126343,763.377869 348.983673,764.190735 351.648102,762.995361 
	C351.621185,753.912354 345.489716,746.797485 337.313141,746.238770 
	C327.229065,745.549622 320.305084,750.814758 318.652863,760.186340 
	C318.120361,763.206787 319.663055,763.613525 321.963531,763.612305 
	C328.775879,763.608582 335.588226,763.619019 343.364960,763.623230 
z" data-index="5" style="visibility: hidden; opacity: 1;"></path>

<path fill="#000000" opacity="1.000000" stroke="none" d="
M527.410400,752.999146 
	C528.063354,757.728394 531.402344,759.368591 535.006592,760.309570 
	C540.138550,761.649292 545.400208,762.483093 550.570251,763.688110 
	C556.316956,765.027588 561.701721,767.305786 566.029480,771.402832 
	C576.499756,781.315063 574.214050,799.848022 561.065796,807.408081 
	C546.785583,815.618958 531.817139,815.523804 517.160034,808.109741 
	C511.156128,805.072815 507.366760,799.777954 505.266937,793.298279 
	C504.525024,791.008911 505.141937,789.794861 507.363861,789.239136 
	C511.873993,788.110962 516.385437,786.988037 520.901367,785.883545 
	C523.006531,785.368652 524.325012,786.317261 525.378845,788.117737 
	C529.656677,795.426514 536.578918,796.395752 544.059021,795.509644 
	C547.813293,795.064880 550.908142,792.936829 551.358887,789.043640 
	C551.782959,785.380798 548.795471,783.596313 545.755066,782.262817 
	C540.511841,779.963257 534.839478,779.471436 529.329895,778.291382 
	C519.193115,776.120056 510.581024,771.864624 507.727386,760.866516 
	C504.104309,746.902954 511.747650,734.947937 526.934082,731.014954 
	C536.096008,728.642212 545.375610,728.670654 554.418396,731.992004 
	C561.756287,734.687134 566.399658,740.078613 569.453552,747.100037 
	C570.808105,750.214539 569.932678,751.823364 566.635315,752.349854 
	C564.503052,752.690247 562.343506,753.005920 560.283813,753.624573 
	C556.014343,754.906982 552.859314,754.664124 549.534729,750.632263 
	C543.613220,743.451050 530.451416,745.008301 527.410400,752.999146 
z" data-index="7" style="visibility: hidden; opacity: 1;"></path>
<path fill="#000000" opacity="1.000000" stroke="none" d="
M358.285828,542.006226 
	C358.282135,559.641113 358.302551,576.777344 358.263794,593.913391 
	C358.239716,604.559082 353.361938,609.354675 342.668335,609.376038 
	C340.505585,609.380310 338.339569,609.440674 336.180603,609.347168 
	C329.528839,609.059204 324.669037,604.672974 323.573547,598.082275 
	C322.693939,592.790222 323.108276,587.454529 323.078003,582.142212 
	C322.986023,566.004883 322.997955,549.866638 323.058105,533.729065 
	C323.080902,527.610962 323.413116,521.186218 330.146454,518.534790 
	C337.786804,515.526062 345.752808,514.974731 353.073181,519.717468 
	C356.825348,522.148438 358.147522,526.174194 358.257660,530.527527 
	C358.350189,534.185364 358.281952,537.847290 358.285828,542.006226 
z" data-index="8"></path>
<path fill="#000000" opacity="1.000000" stroke="none" d="
M666.820740,528.547729 
	C669.480896,519.219788 672.752319,516.718079 681.839355,516.682190 
	C684.170837,516.673035 686.514587,516.552979 688.831787,516.741089 
	C696.241821,517.342346 700.914612,521.830872 701.356079,529.089722 
	C702.691711,551.050903 701.915894,573.037415 701.726013,595.008179 
	C701.643799,604.519409 695.940796,609.275146 686.242920,609.375488 
	C684.577576,609.392700 682.911865,609.386902 681.246460,609.379150 
	C671.698669,609.334595 666.823486,604.605713 666.787964,594.941223 
	C666.707092,572.957275 666.768921,550.972839 666.820740,528.547729 
z" data-index="9"></path>

<path fill="#000000" opacity="1.000000" stroke="none" d="
M716.662537,762.999878 
	C716.664734,753.843567 716.788879,745.184875 716.613586,736.532166 
	C716.539490,732.875061 717.835999,731.369202 721.526917,731.593628 
	C724.843811,731.795288 728.204468,731.867249 731.507019,731.568054 
	C735.882080,731.171692 737.708679,732.908386 737.305481,737.232849 
	C737.235046,737.988464 737.531799,738.778320 737.758667,740.159363 
	C739.892090,738.330444 741.558533,736.804321 743.327026,735.407349 
	C746.501709,732.899231 750.116882,731.260437 754.018005,730.216736 
	C764.755005,727.343994 767.348022,729.255737 767.348389,740.072998 
	C767.348511,743.691895 767.348389,747.310791 767.348389,750.753357 
	C764.653748,751.892029 762.484070,751.295166 760.375977,751.287292 
	C745.816040,751.232849 738.603699,758.156799 738.393372,772.876709 
	C738.238892,783.694031 738.259277,794.521362 738.560547,805.334229 
	C738.686951,809.873108 737.266174,811.415161 732.619324,811.406616 
	C716.669861,811.377258 716.671265,811.535767 716.671631,795.461670 
	C716.671814,784.807739 716.666321,774.153870 716.662537,762.999878 
z" data-index="11" style="visibility: hidden; opacity: 1;"></path>

<path fill="#000000" opacity="1.000000" stroke="none" d="
M687.698303,694.499878 
	C693.628967,693.931396 698.907349,694.485657 702.285278,699.556030 
	C705.195801,703.924744 705.188416,708.655090 702.625488,713.266113 
	C699.608643,718.693604 693.099426,720.974304 686.017090,719.177734 
	C680.641479,717.814026 676.547180,712.226624 676.692078,706.452271 
	C676.852966,700.037415 680.153381,696.341125 687.698303,694.499878 
z" data-index="13" style="visibility: hidden; opacity: 1;"></path>
</svg>