<svg version="1.2" xmlns="http://www.w3.org/2000/svg" viewBox="0 0 608 512" width="608" height="512">
	<style>
		.s0 { fill: #ffffff } 
	</style>
	<path fill-rule="evenodd" class="s0" d="m397.26 273.55c0.01 5.95 0.05 11.55 0.01 17.16-0.04 5.11-1.86 6.9-7.02 6.9q-86.31 0.02-172.63 0.01c-5.95 0-7.58-1.67-7.6-7.78-0.02-12.96-0.14-25.92 0.07-38.87 0.07-4.1-1.21-6.09-5.18-7.71-21.73-8.85-35.05-25.02-38.32-48.24-4.56-32.4 17.32-61.23 48.44-66.87 8.3-1.51 16.45-1.45 24.49 1.08 3.1 0.97 5.17 0.05 6.86-2.5 11.09-16.71 26.9-26.2 46.37-29.67 25.04-4.47 53.12 5.32 68.76 27.97 3.56 5.15 3.48 5.01 9.67 3.54 15.96-3.81 30.62-0.09 43.87 8.9 15.2 10.3 24.28 24.97 26.21 43.17 2.32 21.73-5.38 39.83-22.52 53.66-5.4 4.36-11.46 7.61-18.04 9.81-2.51 0.84-3.49 2.34-3.46 4.93 0.08 8.05 0.03 16.11 0.02 24.51zm-38.53-119.47c-3.12 0.47-4.78-1.13-5.71-3.91-0.74-2.21-1.49-4.44-2.5-6.52-14.17-29.21-52.24-37.9-77.74-17.8-7.52 5.92-13.02 13.29-16.26 22.33-2.4 6.69-5.93 7.92-12.08 4.34q-0.75-0.44-1.46-0.95c-6.5-4.71-13.97-6.07-21.64-5.12-24.95 3.1-40.69 25.45-35.54 49.99 3.44 16.37 19.07 30.09 35.72 31.35 4.92 0.38 7.65 3.21 7.67 8.17 0.04 12.26 0.01 24.52 0.02 36.77 0.01 5.25 0.27 5.52 5.59 5.52q68.82 0 137.64-0.01c5.44 0 5.73-0.3 5.73-5.75 0-11.79-0.03-23.58 0.01-35.37 0.02-6.28 2.61-8.99 8.78-9.37 0.58-0.03 1.17-0.02 1.74-0.12 29.38-5.09 43.7-38.93 26.95-63.42-10.56-15.45-34.36-24.85-52.52-11.68-1.12 0.82-2.41 1.43-4.4 1.55zm11.87 160.98c2.13-2.24 4.53-3.16 7.34-3.38 5.84-0.43 11.67-0.41 17.48 0.19 4.12 0.43 7.57 3.79 8.17 7.98 0.34 2.42 0.54 4.88 0.54 7.32 0.03 23.93 0.01 47.87 0 71.8q0 0.53 0 1.05c-0.09 12.23-3.17 15.33-15.25 15.35-3.38 0-6.77 0.02-10.16-0.03-6.32-0.08-10.46-4.16-10.53-10.58-0.09-8.4-0.01-16.81-0.04-25.21-0.02-4.67-0.93-5.62-5.5-5.62q-59.02-0.02-118.04 0.01c-4.68 0-5.56 0.89-5.57 5.48-0.03 8.41 0.02 16.82-0.02 25.22-0.04 6.69-3.99 10.65-10.67 10.71-5.02 0.05-10.04 0.07-15.06-0.02-5.63-0.11-9.5-3.72-9.77-9.33-0.91-19.02-0.29-38.05-0.4-57.07q-0.08-13.83 0.42-27.64c0.22-5.82 3.46-8.95 9.18-9.5 5.7-0.55 11.42-0.68 17.12-0.01 5.79 0.68 9.11 4.41 9.17 10.36 0.07 8.17 0 16.35 0.03 24.52 0.01 4.54 1.36 5.45 5.94 5.57 15.4 0.39 30.79-0.37 46.2 0.05 11.08 0.3 22.17-0.15 33.26-0.18 12.83-0.03 25.66 0.14 38.49 0 4.64-0.05 5.2-0.91 5.22-5.48 0.02-7.94 0.05-15.88-0.01-23.82-0.02-2.78 0.57-5.31 2.46-7.74zm-175.05 33.46c-0.01 12.35 0.01 24.36-0.02 36.37-0.02 7.45-3.43 10.81-10.93 10.83-1.51 0-3.03 0.04-4.54-0.02-4.66-0.2-8.07-3.28-8.83-7.89-0.62-3.71-0.33-7.45-0.35-11.17q-0.09-16.96-0.01-33.92c0.01-4.29 0.24-8.79 4.96-10.65 5.35-2.1 10.94-2.49 16.06 0.83 2.63 1.71 3.56 4.53 3.64 7.58 0.06 2.56 0.01 5.13 0.02 8.04zm216.16-9.43c1.86-6.54 4.15-8.29 10.52-8.31 1.63-0.01 3.28-0.09 4.9 0.04 5.19 0.42 8.46 3.56 8.77 8.65 0.94 15.39 0.4 30.79 0.26 46.18-0.05 6.67-4.05 10-10.84 10.07q-1.75 0.01-3.5 0c-6.69-0.03-10.11-3.34-10.13-10.11-0.06-15.41-0.02-30.81 0.02-46.52z"/>
</svg>